<?xml version="1.0" encoding="UTF-8"?>
<svg xmlns="http://www.w3.org/2000/svg" width="1460" height="980" viewBox="0 0 1460 980" role="img">
<defs>
  <linearGradient id="bg" x1="0" y1="0" x2="1" y2="1">
    <stop offset="0%" stop-color="#0b1020"/>
    <stop offset="100%" stop-color="#111827"/>
  </linearGradient>
  <filter id="cardShadow" x="-20%" y="-20%" width="140%" height="140%">
    <feDropShadow dx="0" dy="8" stdDeviation="10" flood-opacity="0.22"/>
  </filter>
</defs>
<rect width="1460" height="980" fill="url(#bg)"/>
<g font-family="Inter, Arial, sans-serif">
<rect x="24" y="24" width="1412" height="72" rx="16" fill="#111827" fill-opacity="0.94" stroke="#334155" stroke-width="1" filter="url(#cardShadow)"/>
<text x="48" y="66" fill="#f1f5f9" font-size="30" font-weight="700">M3 Architecture Visual Dashboard</text>
<text x="48" y="95" fill="#94a3b8" font-size="14">Generated: 2026-03-04T09:37:57+00:00  |  Commit: 0d84ab4640ef  |  Branch: main</text>
<text x="48" y="113" fill="#94a3b8" font-size="12">Base: 391a2fb94c00a6495dab02f02f4807774bbef8f9  |  Head: 0d84ab4640efcbe2a7f23bd4cac082f358484484</text>
<rect x="24" y="122" width="456" height="180" rx="14" fill="#17223a" fill-opacity="0.94" stroke="#334155" filter="url(#cardShadow)"/>
<text x="44" y="148" fill="#cbd5e1" font-size="16" font-weight="600">Module graph</text>
<text x="44" y="170" fill="#9ca3af" font-size="12">0 dependencies visualized</text>
<text x="44" y="188" fill="#9ca3af" font-size="12">Tracked modules: 13</text>
<text x="44" y="206" fill="#e2e8f0" font-size="12">Top edges:</text>
<text x="44" y="228" fill="#9ca3af" font-size="12">No internal dependency edges found</text>
<rect x="496" y="122" width="456" height="180" rx="14" fill="#17223a" fill-opacity="0.94" stroke="#334155" filter="url(#cardShadow)"/>
<text x="516" y="148" fill="#cbd5e1" font-size="16" font-weight="600">Class distribution</text>
<text x="516" y="170" fill="#9ca3af" font-size="12">11 files with classes</text>
<text x="516" y="190" fill="#9ca3af" font-size="12">Top files shown (max 8)</text>
<rect x="516" y="214" width="620" height="14" fill="#8b5cf6" opacity="0.92"/>
<text x="1146" y="225" fill="#f8fafc" font-size="10" font-weight="600">m3/m3_core.py (60)</text>
<rect x="516" y="238" width="124" height="14" fill="#8b5cf6" opacity="0.92"/>
<text x="650" y="249" fill="#f8fafc" font-size="10" font-weight="600">m3/torch_policy.py (12)</text>
<rect x="516" y="262" width="82" height="14" fill="#8b5cf6" opacity="0.92"/>
<text x="608" y="273" fill="#f8fafc" font-size="10" font-weight="600">llm_adapter/llm_core.py (8)</text>
<rect x="516" y="286" width="82" height="14" fill="#8b5cf6" opacity="0.92"/>
<text x="608" y="297" fill="#f8fafc" font-size="10" font-weight="600">llm_adapter/m3_control_bridge.py (8)</text>
<rect x="516" y="310" width="72" height="14" fill="#8b5cf6" opacity="0.92"/>
<text x="598" y="321" fill="#f8fafc" font-size="10" font-weight="600">llm_adapter/memory.py (7)</text>
<rect x="516" y="334" width="72" height="14" fill="#8b5cf6" opacity="0.92"/>
<text x="598" y="345" fill="#f8fafc" font-size="10" font-weight="600">m3/reward.py (7)</text>
<rect x="516" y="358" width="31" height="14" fill="#8b5cf6" opacity="0.92"/>
<text x="557" y="369" fill="#f8fafc" font-size="10" font-weight="600">m3/features.py (3)</text>
<rect x="516" y="382" width="31" height="14" fill="#8b5cf6" opacity="0.92"/>
<text x="557" y="393" fill="#f8fafc" font-size="10" font-weight="600">m3/visualization.py (3)</text>
<rect x="968" y="122" width="468" height="180" rx="14" fill="#17223a" fill-opacity="0.94" stroke="#334155" filter="url(#cardShadow)"/>
<text x="988" y="148" fill="#cbd5e1" font-size="16" font-weight="600">System health</text>
<text x="988" y="170" fill="#9ca3af" font-size="12">Changed files: 46</text>
<text x="988" y="190" fill="#9ca3af" font-size="12">Classes: 111, Files: 13, Edges: 0</text>
<text x="988" y="214" fill="#f8fafc" font-size="14">Change pressure (normalized)</text>
<text x="988" y="238" fill="#9ca3af" font-size="10">1.</text>
<rect x="1008" y="229" width="620" height="12" fill="#22c55e" opacity="0.9"/>
<text x="1008" y="245" fill="#e2e8f0" font-size="10">M3-main/docs_tests_data/tokenizer.json</text>
<text x="1450" y="245" fill="#cbd5e1" font-size="10" text-anchor="end">149352</text>
<text x="988" y="262" fill="#9ca3af" font-size="10">2.</text>
<rect x="1008" y="253" width="77" height="12" fill="#22c55e" opacity="0.9"/>
<text x="1008" y="269" fill="#e2e8f0" font-size="10">M3-main/m3/m3_core.py</text>
<text x="1450" y="269" fill="#cbd5e1" font-size="10" text-anchor="end">18608</text>
<text x="988" y="286" fill="#9ca3af" font-size="10">3.</text>
<rect x="1008" y="277" width="39" height="12" fill="#22c55e" opacity="0.9"/>
<text x="1008" y="293" fill="#e2e8f0" font-size="10">M3-main/llm_adapter/llm_core.py</text>
<text x="1450" y="293" fill="#cbd5e1" font-size="10" text-anchor="end">9516</text>
<text x="988" y="310" fill="#9ca3af" font-size="10">4.</text>
<rect x="1008" y="301" width="6" height="12" fill="#22c55e" opacity="0.9"/>
<text x="1008" y="317" fill="#e2e8f0" font-size="10">M3-main/docs_tests_data/tests/build_status_packe</text>
<text x="1450" y="317" fill="#cbd5e1" font-size="10" text-anchor="end">952</text>
<text x="988" y="334" fill="#9ca3af" font-size="10">5.</text>
<rect x="1008" y="325" width="6" height="12" fill="#22c55e" opacity="0.9"/>
<text x="1008" y="341" fill="#e2e8f0" font-size="10">M3-main/llm_adapter/memory.py</text>
<text x="1450" y="341" fill="#cbd5e1" font-size="10" text-anchor="end">884</text>
<text x="988" y="358" fill="#9ca3af" font-size="10">6.</text>
<rect x="1008" y="349" width="6" height="12" fill="#22c55e" opacity="0.9"/>
<text x="1008" y="365" fill="#e2e8f0" font-size="10">M3-main/docs_tests_data/tests/test_m3_plan_featu</text>
<text x="1450" y="365" fill="#cbd5e1" font-size="10" text-anchor="end">834</text>
<rect x="24" y="318" width="1412" height="620" rx="16" fill="#0f172a" fill-opacity="0.94" stroke="#334155" filter="url(#cardShadow)"/>
<text x="44" y="350" fill="#cbd5e1" font-size="17" font-weight="600">Changed files (top by churn)</text>
<text x="44" y="372" fill="#9ca3af" font-size="12">status  |  file  | + lines  | - lines  | churn</text>
<text x="44" y="398" fill="#94a3b8" font-size="11"> A</text>
<text x="86" y="398" fill="#bfdbfe" font-size="11" text-anchor="start">M3-main/docs_tests_data/tokenizer.json</text>
<text x="1160" y="398" fill="#cbd5e1" font-size="11" text-anchor="end">149352</text>
<text x="1248" y="398" fill="#f9fafb" font-size="11" text-anchor="end">    0</text>
<text x="1360" y="398" fill="#86efac" font-size="11" text-anchor="end">149352</text>
<line x1="44" y1="402" x2="1432" y2="402" stroke="#1f2937" stroke-width="1"/>
<text x="44" y="418" fill="#94a3b8" font-size="11"> A</text>
<text x="86" y="418" fill="#bfdbfe" font-size="11" text-anchor="start">M3-main/m3/m3_core.py</text>
<text x="1160" y="418" fill="#cbd5e1" font-size="11" text-anchor="end">18608</text>
<text x="1248" y="418" fill="#f9fafb" font-size="11" text-anchor="end">    0</text>
<text x="1360" y="418" fill="#86efac" font-size="11" text-anchor="end"> 18608</text>
<line x1="44" y1="422" x2="1432" y2="422" stroke="#1f2937" stroke-width="1"/>
<text x="44" y="438" fill="#94a3b8" font-size="11"> A</text>
<text x="86" y="438" fill="#bfdbfe" font-size="11" text-anchor="start">M3-main/llm_adapter/llm_core.py</text>
<text x="1160" y="438" fill="#cbd5e1" font-size="11" text-anchor="end"> 9516</text>
<text x="1248" y="438" fill="#f9fafb" font-size="11" text-anchor="end">    0</text>
<text x="1360" y="438" fill="#86efac" font-size="11" text-anchor="end">  9516</text>
<line x1="44" y1="442" x2="1432" y2="442" stroke="#1f2937" stroke-width="1"/>
<text x="44" y="458" fill="#94a3b8" font-size="11"> A</text>
<text x="86" y="458" fill="#bfdbfe" font-size="11" text-anchor="start">M3-main/docs_tests_data/tests/build_status_packet.py</text>
<text x="1160" y="458" fill="#cbd5e1" font-size="11" text-anchor="end">  952</text>
<text x="1248" y="458" fill="#f9fafb" font-size="11" text-anchor="end">    0</text>
<text x="1360" y="458" fill="#86efac" font-size="11" text-anchor="end">   952</text>
<line x1="44" y1="462" x2="1432" y2="462" stroke="#1f2937" stroke-width="1"/>
<text x="44" y="478" fill="#94a3b8" font-size="11"> A</text>
<text x="86" y="478" fill="#bfdbfe" font-size="11" text-anchor="start">M3-main/llm_adapter/memory.py</text>
<text x="1160" y="478" fill="#cbd5e1" font-size="11" text-anchor="end">  884</text>
<text x="1248" y="478" fill="#f9fafb" font-size="11" text-anchor="end">    0</text>
<text x="1360" y="478" fill="#86efac" font-size="11" text-anchor="end">   884</text>
<line x1="44" y1="482" x2="1432" y2="482" stroke="#1f2937" stroke-width="1"/>
<text x="44" y="498" fill="#94a3b8" font-size="11"> A</text>
<text x="86" y="498" fill="#bfdbfe" font-size="11" text-anchor="start">M3-main/docs_tests_data/tests/test_m3_plan_features.py</text>
<text x="1160" y="498" fill="#cbd5e1" font-size="11" text-anchor="end">  834</text>
<text x="1248" y="498" fill="#f9fafb" font-size="11" text-anchor="end">    0</text>
<text x="1360" y="498" fill="#86efac" font-size="11" text-anchor="end">   834</text>
<line x1="44" y1="502" x2="1432" y2="502" stroke="#1f2937" stroke-width="1"/>
<text x="44" y="518" fill="#94a3b8" font-size="11"> A</text>
<text x="86" y="518" fill="#bfdbfe" font-size="11" text-anchor="start">M3-main/run_llm_adapter.py</text>
<text x="1160" y="518" fill="#cbd5e1" font-size="11" text-anchor="end">  754</text>
<text x="1248" y="518" fill="#f9fafb" font-size="11" text-anchor="end">    0</text>
<text x="1360" y="518" fill="#86efac" font-size="11" text-anchor="end">   754</text>
<line x1="44" y1="522" x2="1432" y2="522" stroke="#1f2937" stroke-width="1"/>
<text x="44" y="538" fill="#94a3b8" font-size="11"> A</text>
<text x="86" y="538" fill="#bfdbfe" font-size="11" text-anchor="start">M3-main/m3/meaning_pipeline.py</text>
<text x="1160" y="538" fill="#cbd5e1" font-size="11" text-anchor="end">  750</text>
<text x="1248" y="538" fill="#f9fafb" font-size="11" text-anchor="end">    0</text>
<text x="1360" y="538" fill="#86efac" font-size="11" text-anchor="end">   750</text>
<line x1="44" y1="542" x2="1432" y2="542" stroke="#1f2937" stroke-width="1"/>
<text x="44" y="558" fill="#94a3b8" font-size="11"> A</text>
<text x="86" y="558" fill="#bfdbfe" font-size="11" text-anchor="start">M3-main/m3/torch_policy.py</text>
<text x="1160" y="558" fill="#cbd5e1" font-size="11" text-anchor="end">  704</text>
<text x="1248" y="558" fill="#f9fafb" font-size="11" text-anchor="end">    0</text>
<text x="1360" y="558" fill="#86efac" font-size="11" text-anchor="end">   704</text>
<line x1="44" y1="562" x2="1432" y2="562" stroke="#1f2937" stroke-width="1"/>
<text x="44" y="578" fill="#94a3b8" font-size="11"> A</text>
<text x="86" y="578" fill="#bfdbfe" font-size="11" text-anchor="start">M3-main/llm_adapter/config.py</text>
<text x="1160" y="578" fill="#cbd5e1" font-size="11" text-anchor="end">  696</text>
<text x="1248" y="578" fill="#f9fafb" font-size="11" text-anchor="end">    0</text>
<text x="1360" y="578" fill="#86efac" font-size="11" text-anchor="end">   696</text>
<line x1="44" y1="582" x2="1432" y2="582" stroke="#1f2937" stroke-width="1"/>
<text x="44" y="598" fill="#94a3b8" font-size="11"> A</text>
<text x="86" y="598" fill="#bfdbfe" font-size="11" text-anchor="start">M3-main/llm_adapter/m3_control_bridge.py</text>
<text x="1160" y="598" fill="#cbd5e1" font-size="11" text-anchor="end">  658</text>
<text x="1248" y="598" fill="#f9fafb" font-size="11" text-anchor="end">    0</text>
<text x="1360" y="598" fill="#86efac" font-size="11" text-anchor="end">   658</text>
<line x1="44" y1="602" x2="1432" y2="602" stroke="#1f2937" stroke-width="1"/>
<text x="44" y="618" fill="#94a3b8" font-size="11"> A</text>
<text x="86" y="618" fill="#bfdbfe" font-size="11" text-anchor="start">M3-main/m3/reward.py</text>
<text x="1160" y="618" fill="#cbd5e1" font-size="11" text-anchor="end">  623</text>
<text x="1248" y="618" fill="#f9fafb" font-size="11" text-anchor="end">    0</text>
<text x="1360" y="618" fill="#86efac" font-size="11" text-anchor="end">   623</text>
<line x1="44" y1="622" x2="1432" y2="622" stroke="#1f2937" stroke-width="1"/>
<text x="44" y="638" fill="#94a3b8" font-size="11"> A</text>
<text x="86" y="638" fill="#bfdbfe" font-size="11" text-anchor="start">M3-main/llm_adapter/tokenization.py</text>
<text x="1160" y="638" fill="#cbd5e1" font-size="11" text-anchor="end">  533</text>
<text x="1248" y="638" fill="#f9fafb" font-size="11" text-anchor="end">    0</text>
<text x="1360" y="638" fill="#86efac" font-size="11" text-anchor="end">   533</text>
<line x1="44" y1="642" x2="1432" y2="642" stroke="#1f2937" stroke-width="1"/>
<text x="44" y="658" fill="#94a3b8" font-size="11"> A</text>
<text x="86" y="658" fill="#bfdbfe" font-size="11" text-anchor="start">M3-main/llm_adapter/semantic_scorer.py</text>
<text x="1160" y="658" fill="#cbd5e1" font-size="11" text-anchor="end">  446</text>
<text x="1248" y="658" fill="#f9fafb" font-size="11" text-anchor="end">    0</text>
<text x="1360" y="658" fill="#86efac" font-size="11" text-anchor="end">   446</text>
<line x1="44" y1="662" x2="1432" y2="662" stroke="#1f2937" stroke-width="1"/>
</g>
</svg>
